<?xml version="1.0" encoding="utf-8"?>
<!-- Generator: Adobe Illustrator 24.0.0, SVG Export Plug-In . SVG Version: 6.00 Build 0)  -->
<svg version="1.1" id="Layer_1" xmlns="http://www.w3.org/2000/svg" xmlns:xlink="http://www.w3.org/1999/xlink" x="0px" y="0px"
	 viewBox="0 0 841.89 595.28" style="enable-background:new 0 0 841.89 595.28;" xml:space="preserve">
<style type="text/css">
	.st0{fill:#F5E1C3;}
	.st1{fill:#CD202C;}
</style>
<g>
	<path class="st0" d="M265.85,279.69c0,14.22-11.54,25.74-25.76,25.74c-14.22,0-25.74-11.52-25.74-25.74
		c0-14.22,25.74-61.89,25.74-61.89S265.85,265.47,265.85,279.69z"/>
	<polygon class="st0" points="345.39,223.03 282.88,68.63 211.52,68.63 220.03,73.37 316.02,305.44 337.5,305.44 364.33,194.94 	"/>
	<polygon class="st0" points="453.38,300.72 453.38,73.05 459.37,68.63 412.65,68.63 396.22,106.84 396.22,300.72 389.6,305.44 
		459.71,305.44 	"/>
	<path class="st0" d="M484.7,305.44l6.63-4.72V73.37l-6.63-4.74h69.8l-6.33,4.42v194.18l19.46,38.21H484.7z"/>
	<path class="st0" d="M630.37,279.69c0,14.22-11.52,25.74-25.75,25.74c-14.23,0-25.74-11.52-25.74-25.74
		c0-14.22,25.74-61.89,25.74-61.89S630.37,265.47,630.37,279.69z"/>
</g>
<g>
	<path class="st1" d="M98.09,366.48c-6.67,0.29-7.96,1.29-7.96,8.44v48.75c0,7.15,1.29,8.16,7.96,8.45v1.97
		c-3.07-0.19-7.96-0.29-12.47-0.29c-5.13,0-9.83,0.1-12.57,0.29v-1.97c6.67-0.29,7.92-1.3,7.92-8.45v-52.59L57.3,434.56h-1.59
		L30.96,370.8v51.87c0,7.2,1.29,9.17,8.92,9.45v1.97c-2.35-0.19-6.67-0.29-10.03-0.29c-3.31,0-6.96,0.1-9.12,0.29v-1.97
		c6.67-0.29,7.97-2.26,7.97-9.45v-47.74c0-7.15-1.3-8.16-7.97-8.44v-1.97c2.16,0.19,5.81,0.29,9.12,0.29c2.88,0,6.24-0.1,8.4-0.29
		l21.59,57l21.11-56.71h4.66c4.51,0,9.4-0.1,12.47-0.29V366.48z"/>
	<path class="st1" d="M177.59,425.83c1.97,4.99,4.75,6.19,6.81,6.29v1.97c-2.69-0.19-6.81-0.29-10.56-0.29
		c-5.08,0-9.79,0.1-12.57,0.29v-1.97c4.75-0.19,6.96-0.91,6.96-3.65c0-1.15-0.38-2.64-1.15-4.6l-6.05-16.12h-23.7l-4.03,10.41
		c-1.35,3.4-1.97,6.04-1.97,8.06c0,4.27,2.93,5.75,8.54,5.9v1.97c-3.74-0.19-7.87-0.29-11.32-0.29c-3.31,0-5.37,0.1-7.34,0.29v-1.97
		c2.54-0.58,5.47-2.64,7.72-8.54l23.13-59.54h1.58L177.59,425.83z M149.33,376.46l-11.27,29.32h22.26L149.33,376.46z"/>
	<path class="st1" d="M266.35,429.19c-2.78,4.03-5.23,6.29-10.51,6.29c-4.94,0-8.69-2.25-10.56-10.65l-2.16-9.79
		c-1.87-8.35-3.31-13.96-11.08-13.96h-9.36v22.6c0,7.15,1.29,8.16,7.97,8.45v1.97c-3.03-0.19-7.97-0.29-12.48-0.29
		c-5.08,0-9.83,0.1-12.57,0.29v-1.97c6.67-0.29,7.96-1.3,7.96-8.45v-48.75c0-7.15-1.3-8.16-7.96-8.44v-1.97
		c2.74,0.19,7.68,0.29,12,0.29c6.19,0,12.47-0.19,14.82-0.19c15.83,0,23.7,7.49,23.7,17.08c0,6.81-4.27,16.6-19.1,18.9l1.2,0.19
		c8.73,1.44,11.9,4.8,13.77,12.96l2.45,10.03c1.2,5.71,2.3,8.06,5.04,8.06c2.4,0,3.55-1.44,5.37-3.74L266.35,429.19z M222.69,374.92
		v24.18h6.62c13.92,0,16.99-7.29,16.99-16.31c0-10.31-4.41-16.31-16.31-16.31C223.98,366.48,222.69,368.16,222.69,374.92z"/>
	<path class="st1" d="M313.99,366.48c-6.67,0.29-7.96,1.29-7.96,8.44v48.75c0,7.15,1.29,8.16,7.96,8.45v1.97
		c-3.02-0.19-7.96-0.29-12.47-0.29c-5.09,0-9.84,0.1-12.57,0.29v-1.97c6.67-0.29,7.97-1.3,7.97-8.45v-48.75
		c0-7.15-1.3-8.16-7.97-8.44v-1.97c2.73,0.19,7.48,0.29,12.57,0.29c4.51,0,9.45-0.1,12.47-0.29V366.48z"/>
	<path class="st1" d="M393.49,425.83c1.97,4.99,4.75,6.19,6.81,6.29v1.97c-2.69-0.19-6.81-0.29-10.55-0.29
		c-5.09,0-9.79,0.1-12.57,0.29v-1.97c4.75-0.19,6.96-0.91,6.96-3.65c0-1.15-0.38-2.64-1.15-4.6l-6.05-16.12h-23.7l-4.03,10.41
		c-1.35,3.4-1.97,6.04-1.97,8.06c0,4.27,2.93,5.75,8.54,5.9v1.97c-3.74-0.19-7.87-0.29-11.32-0.29c-3.31,0-5.37,0.1-7.34,0.29v-1.97
		c2.54-0.58,5.47-2.64,7.72-8.54l23.13-59.54h1.58L393.49,425.83z M365.23,376.46l-11.28,29.32h22.26L365.23,376.46z"/>
	<path class="st1" d="M492.65,366.48c-6.67,0.29-7.97,1.29-7.97,8.44v48.75c0,7.15,1.29,8.16,7.97,8.16h7.2
		c12.28,0,14.73-4.7,16.12-18.38h2.26c-0.19,2.06-0.29,4.89-0.29,8.06c0,2.45,0.19,7.58,0.67,12.57c-6.67-0.29-15.93-0.29-22.5-0.29
		c-5.9,0-18.85,0-28.5,0.29v-1.97c6.67-0.29,7.97-1.3,7.97-8.45v-48.75c0-7.15-1.3-8.16-7.97-8.44v-1.97
		c2.74,0.19,7.49,0.29,12.57,0.29c4.51,0,9.45-0.1,12.48-0.29V366.48z"/>
	<path class="st1" d="M605.25,366.48c-6.67,0.29-7.91,2.26-7.91,9.45v29.56c0,9.12-1.1,15.83-4.03,20.82
		c-3.26,5.52-9.93,9.16-17.99,9.16c-6.28,0-12.19-1.3-16.5-5.33c-5.81-5.42-7.29-10.99-7.29-24.38v-30.85
		c0-7.15-1.25-8.16-7.96-8.44v-1.97c2.78,0.19,7.48,0.29,12.57,0.29c4.56,0,9.45-0.1,12.52-0.29v1.97
		c-6.72,0.29-7.97,1.29-7.97,8.44v32.53c0,13.48,1.54,24.57,15.5,24.57c14.82,0,18.85-10.79,18.85-25.43v-30.66
		c0-7.19-2.25-9.16-8.92-9.45v-1.97c2.35,0.19,6.67,0.29,10.03,0.29s6.96-0.1,9.12-0.29V366.48z"/>
	<path class="st1" d="M656.78,366.48c-6.67,0.29-7.96,1.29-7.96,8.44v48.75c0,7.15,1.3,8.16,7.96,8.45v1.97
		c-3.02-0.19-7.96-0.29-12.47-0.29c-5.09,0-9.84,0.1-12.57,0.29v-1.97c6.67-0.29,7.97-1.3,7.97-8.45v-48.75
		c0-7.15-1.3-8.16-7.97-8.44v-1.97c2.73,0.19,7.49,0.29,12.57,0.29c4.51,0,9.45-0.1,12.47-0.29V366.48z"/>
	<path class="st1" d="M693.96,431.83h20.73c12.28,0,14.73-4.7,16.12-18.38h2.25c-0.19,2.06-0.34,4.89-0.34,8.06
		c0,2.45,0.24,7.58,0.72,12.57c-7.29-0.29-17.32-0.29-24.47-0.29c-7.77,0-16.79,0-24.28,0.29v-1.97l40.98-65.35h-20.63
		c-12.28,0-14.73,4.7-16.12,18.38h-2.26c0.19-2.06,0.29-4.89,0.29-8.06c0-2.45-0.19-7.58-0.67-12.57
		c7.25,0.29,17.28,0.29,24.47,0.29c7.44,0,16.7,0,23.84-0.29v1.97L693.96,431.83z"/>
	<path class="st1" d="M814.33,425.83c1.97,4.99,4.75,6.19,6.81,6.29v1.97c-2.69-0.19-6.81-0.29-10.56-0.29
		c-5.08,0-9.79,0.1-12.57,0.29v-1.97c4.75-0.19,6.96-0.91,6.96-3.65c0-1.15-0.38-2.64-1.15-4.6l-6.05-16.12h-23.7l-4.03,10.41
		c-1.35,3.4-1.97,6.04-1.97,8.06c0,4.27,2.93,5.75,8.54,5.9v1.97c-3.74-0.19-7.87-0.29-11.32-0.29c-3.31,0-5.37,0.1-7.34,0.29v-1.97
		c2.54-0.58,5.47-2.64,7.72-8.54l23.13-59.54h1.58L814.33,425.83z M786.07,376.46l-11.28,29.32h22.26L786.07,376.46z"/>
</g>
<g>
	<path class="st0" d="M214.08,472.1c0.21,0.17,0.42,0.26,0.57,0.26c0.41,0,0.64-0.54,0.76-1.74h0.67c-0.09,1.5-0.11,3.51-0.11,7.08
		h-0.69c-0.31-2.68-0.68-4.09-2.2-5.29c-0.97-0.94-2.31-1.44-3.7-1.44c-4.19,0-5.82,4.89-5.82,10.06c0,5.24,1.76,9.99,5.94,9.99
		c1.28,0,2.69-0.47,3.64-1.41c1.51-1.17,1.87-2.8,2.14-5.65h0.69c0,3.71,0.03,5.81,0.11,7.36h-0.67c-0.12-1.2-0.3-1.73-0.71-1.73
		c-0.17,0-0.37,0.08-0.62,0.24c-1.42,1.01-2.88,1.9-5.39,1.9c-6.19,0-10.31-3.89-10.31-10.58c0-6.53,4.26-10.93,10.34-10.93
		C211.28,470.2,212.79,471.11,214.08,472.1z"/>
	<path class="st0" d="M242.25,491.3c-1.98-0.09-4.72-0.09-6.69-0.09c-1.96,0-6.33,0-9.52,0.09v-0.59c1.86-0.08,2.18-0.38,2.18-2.51
		v-14.49c0-2.12-0.34-2.42-2.18-2.51v-0.58c3.18,0.08,7.56,0.08,9.52,0.08c1.78,0,4.31,0,6.11-0.08c-0.14,1.73-0.2,3.48-0.2,4.32
		c0,0.77,0.03,1.51,0.09,1.98h-0.67c-0.59-4.28-2.11-5.64-4.79-5.64h-1.2c-1.7,0-2.01,0.26-2.01,2.08v7.23h0.94
		c2.34,0,3.17-2.27,3.48-3.85h0.67c-0.09,1.24-0.1,2.08-0.1,2.75c0,0.54,0.01,0.97,0.01,1.4c0,0.96,0.03,1.93,0.17,4.15h-0.67
		c-0.3-2.06-1.23-3.87-3.57-3.87h-0.94v7.36c0,1.83,0.31,2.08,2.01,2.08h1.44c2.61,0,4.41-1.51,5.13-6.22h0.67
		c-0.06,0.63-0.09,1.5-0.09,2.46C242.05,487.73,242.08,489.55,242.25,491.3z"/>
	<path class="st0" d="M271.15,471.2c-1.87,0.26-2.2,1.03-2.2,3.85v16.31c-0.21-0.01-0.46-0.01-0.7-0.01c-0.26,0-0.51,0-0.8,0.01
		l-12.67-16.06v11.21c0,3.21,0.26,3.95,2.84,4.21v0.59c-0.76-0.06-2.11-0.09-3.17-0.09c-0.91,0-1.92,0.03-2.54,0.09v-0.59
		c1.87-0.26,2.2-1.03,2.2-3.85v-13.15c0-2.12-0.34-2.42-2.2-2.51v-0.58c0.61,0.06,1.62,0.08,2.54,0.08c0.93,0,1.84-0.03,2.52-0.08
		l11.3,13.94v-9.15c0-3.21-0.26-3.95-2.84-4.21v-0.58c0.76,0.06,2.11,0.08,3.17,0.08c0.91,0,1.92-0.03,2.54-0.08V471.2z"/>
	<path class="st0" d="M297.88,475.58c0,0.87,0.03,1.68,0.09,2.22h-0.67c-0.98-4.92-2.53-6.52-5.25-6.52h-0.64v16.68
		c0,2.38,0.53,2.72,3.12,2.75v0.59c-1.24-0.04-3.41-0.09-5.56-0.09c-2.16,0-4.18,0.04-5.34,0.09v-0.59c2.6-0.03,3.12-0.37,3.12-2.75
		v-16.68h-0.64c-2.75,0-4.26,1.58-5.26,6.52h-0.67c0.06-0.54,0.09-1.36,0.09-2.22c0-0.97-0.06-2.98-0.2-4.96
		c2.64,0.08,6.42,0.08,9.03,0.08c2.61,0,6.36,0,9-0.08C297.93,472.6,297.88,474.61,297.88,475.58z"/>
	<path class="st0" d="M326.95,490.02c-1.04,1.2-2.17,1.7-3.88,1.7c-2.1,0-3.51-0.73-3.95-3.17l-0.51-2.91
		c-0.43-2.44-0.9-4.15-2.72-4.15h-1.9v6.72c0,2.13,0.34,2.43,2.2,2.51v0.59c-1.06-0.06-2.8-0.09-4.42-0.09
		c-1.87,0-3.62,0.03-4.61,0.09v-0.59c1.86-0.08,2.18-0.38,2.18-2.51v-14.49c0-2.12-0.34-2.42-2.18-2.51v-0.58
		c0.98,0.06,2.8,0.08,4.44,0.08c1.91,0,3.85-0.06,4.59-0.06c5.44,0,8.09,1.87,8.09,5.08c0,2.37-1.44,5.06-6.56,5.65h0.01
		c3.54,0.3,5.09,1.43,5.61,3.85l0.65,3.01c0.33,1.56,0.66,2.1,1.38,2.1c0.5,0,0.81-0.23,1.18-0.67L326.95,490.02z M313.98,473.71
		v7.19h1.26c3.45,0,4.18-2.17,4.18-4.85c0-3.07-0.97-4.85-3.62-4.85C314.29,471.2,313.98,471.7,313.98,473.71z"/>
	<path class="st0" d="M355.62,480.79c0,6.53-4.28,10.93-10.34,10.93c-6.19,0-10.31-3.89-10.31-10.58c0-6.53,4.26-10.93,10.34-10.93
		C351.48,470.2,355.62,474.1,355.62,480.79z M339.81,481.01c0,6.22,2.5,10.17,5.58,10.17c3.27,0,5.38-4.24,5.38-10.29
		c0-6.22-2.5-10.17-5.59-10.17C341.91,470.73,339.81,474.97,339.81,481.01z"/>
	<path class="st0" d="M399.7,480.73c0,6.36-4.28,10.57-11.63,10.57c-0.91,0-2.95-0.09-4.26-0.09c-1.73,0-3.51,0.03-4.49,0.09v-0.59
		c1.86-0.08,2.18-0.38,2.18-2.51v-14.49c0-2.12-0.34-2.42-2.18-2.51v-0.58c0.8,0.04,2.15,0.1,3.52,0.1c0.3,0,0.61-0.02,0.91-0.02
		c1.4-0.03,3.42-0.08,4.59-0.08C396.03,470.62,399.7,474.21,399.7,480.73z M386.14,473.65v14.61c0,2.04,0.38,2.51,2.2,2.51
		c4.92,0,6.51-3.57,6.51-9.93c0-6.55-1.83-9.7-6.53-9.7C386.53,471.14,386.14,471.64,386.14,473.65z"/>
	<path class="st0" d="M425.26,491.3c-1.98-0.09-4.72-0.09-6.69-0.09c-1.96,0-6.33,0-9.52,0.09v-0.59c1.85-0.08,2.18-0.38,2.18-2.51
		v-14.49c0-2.12-0.34-2.42-2.18-2.51v-0.58c3.18,0.08,7.56,0.08,9.52,0.08c1.78,0,4.31,0,6.11-0.08c-0.14,1.73-0.2,3.48-0.2,4.32
		c0,0.77,0.03,1.51,0.09,1.98h-0.67c-0.59-4.28-2.11-5.64-4.79-5.64h-1.2c-1.7,0-2.01,0.26-2.01,2.08v7.23h0.94
		c2.34,0,3.17-2.27,3.48-3.85h0.67c-0.09,1.24-0.1,2.08-0.1,2.75c0,0.54,0.01,0.97,0.01,1.4c0,0.96,0.03,1.93,0.17,4.15h-0.67
		c-0.3-2.06-1.23-3.87-3.57-3.87h-0.94v7.36c0,1.83,0.31,2.08,2.01,2.08h1.44c2.61,0,4.41-1.51,5.13-6.22h0.67
		c-0.06,0.63-0.08,1.5-0.08,2.46C425.06,487.73,425.09,489.55,425.26,491.3z"/>
	<path class="st0" d="M465.24,491.3c-1.98-0.09-4.72-0.09-6.69-0.09c-1.96,0-6.33,0-9.52,0.09v-0.59c1.86-0.08,2.18-0.38,2.18-2.51
		v-14.49c0-2.12-0.34-2.42-2.18-2.51v-0.58c3.18,0.08,7.56,0.08,9.52,0.08c1.78,0,4.31,0,6.11-0.08c-0.14,1.73-0.2,3.48-0.2,4.32
		c0,0.77,0.03,1.51,0.09,1.98h-0.67c-0.59-4.28-2.11-5.64-4.79-5.64h-1.2c-1.7,0-2.01,0.26-2.01,2.08v7.23h0.94
		c2.34,0,3.17-2.27,3.48-3.85h0.67c-0.09,1.24-0.1,2.08-0.1,2.75c0,0.54,0.01,0.97,0.01,1.4c0,0.96,0.03,1.93,0.17,4.15h-0.67
		c-0.3-2.06-1.23-3.87-3.57-3.87h-0.94v7.36c0,1.83,0.31,2.08,2.01,2.08h1.44c2.61,0,4.41-1.51,5.13-6.22h0.67
		c-0.06,0.63-0.09,1.5-0.09,2.46C465.04,487.73,465.07,489.55,465.24,491.3z"/>
	<path class="st0" d="M486.45,471.37c0.47,0.29,0.73,0.41,0.98,0.41c0.39,0,0.53-0.44,0.66-1.28h0.67c-0.1,1.16-0.16,2.55-0.16,6.66
		h-0.67c-0.2-3.04-1.84-6.22-4.96-6.22c-1.87,0-3.21,1.13-3.21,2.98c0,2.36,1.78,3.31,5.05,5.51c2.77,1.84,4.94,3.42,4.94,6.59
		c0,3.85-3.32,5.69-7.25,5.69c-2.43,0-3.71-0.56-4.7-1.08c-0.47-0.3-0.77-0.42-1-0.42c-0.39,0-0.53,0.44-0.64,1.29h-0.67
		c0.09-1.37,0.12-3.24,0.12-7.89h0.67c0.24,3.9,1.59,7.33,5.32,7.33c2.04,0,3.63-1.08,3.63-3.27c0-2.4-1.81-3.78-4.38-5.44
		c-2.78-1.77-5.21-3.41-5.21-6.66c0-3.68,3.12-5.34,6.55-5.34C484.46,470.24,485.53,470.83,486.45,471.37z"/>
	<path class="st0" d="M516.84,475.58c0,0.87,0.03,1.68,0.09,2.22h-0.67c-0.98-4.92-2.53-6.52-5.25-6.52h-0.64v16.68
		c0,2.38,0.53,2.72,3.12,2.75v0.59c-1.24-0.04-3.41-0.09-5.56-0.09c-2.16,0-4.18,0.04-5.33,0.09v-0.59c2.6-0.03,3.12-0.37,3.12-2.75
		v-16.68h-0.64c-2.75,0-4.26,1.58-5.26,6.52h-0.67c0.06-0.54,0.09-1.36,0.09-2.22c0-0.97-0.06-2.98-0.2-4.96
		c2.64,0.08,6.42,0.08,9.03,0.08c2.61,0,6.36,0,9-0.08C516.9,472.6,516.84,474.61,516.84,475.58z"/>
	<path class="st0" d="M542.31,491.3c-1.98-0.09-4.72-0.09-6.69-0.09c-1.95,0-6.33,0-9.51,0.09v-0.59c1.86-0.08,2.18-0.38,2.18-2.51
		v-14.49c0-2.12-0.34-2.42-2.18-2.51v-0.58c3.18,0.08,7.56,0.08,9.51,0.08c1.78,0,4.31,0,6.11-0.08c-0.14,1.73-0.2,3.48-0.2,4.32
		c0,0.77,0.03,1.51,0.09,1.98h-0.67c-0.59-4.28-2.11-5.64-4.79-5.64h-1.2c-1.7,0-2.01,0.26-2.01,2.08v7.23h0.94
		c2.34,0,3.17-2.27,3.48-3.85h0.67c-0.09,1.24-0.1,2.08-0.1,2.75c0,0.54,0.01,0.97,0.01,1.4c0,0.96,0.03,1.93,0.17,4.15h-0.67
		c-0.3-2.06-1.23-3.87-3.57-3.87h-0.94v7.36c0,1.83,0.31,2.08,2.01,2.08h1.44c2.61,0,4.41-1.51,5.13-6.22h0.67
		c-0.06,0.63-0.09,1.5-0.09,2.46C542.11,487.73,542.14,489.55,542.31,491.3z M532.38,468.75l-0.21-0.36
		c2.78-2.27,3.39-3.65,4.73-4.37c0.29-0.15,0.6-0.23,0.91-0.23c0.59,0,1.17,0.29,1.46,0.84c0.12,0.21,0.16,0.44,0.16,0.67
		c0,0.59-0.34,1.16-0.97,1.5C537.15,467.53,535.64,467.51,532.38,468.75z"/>
	<path class="st0" d="M569.53,475.58c0,0.87,0.03,1.68,0.09,2.22h-0.67c-0.98-4.92-2.53-6.52-5.25-6.52h-0.64v16.68
		c0,2.38,0.53,2.72,3.12,2.75v0.59c-1.24-0.04-3.41-0.09-5.56-0.09c-2.16,0-4.18,0.04-5.34,0.09v-0.59c2.6-0.03,3.12-0.37,3.12-2.75
		v-16.68h-0.64c-2.75,0-4.26,1.58-5.26,6.52h-0.67c0.06-0.54,0.08-1.36,0.08-2.22c0-0.97-0.06-2.98-0.2-4.96
		c2.64,0.08,6.42,0.08,9.03,0.08c2.61,0,6.36,0,9-0.08C569.59,472.6,569.53,474.61,569.53,475.58z"/>
	<path class="st0" d="M587.83,471.2c-1.87,0.09-2.2,0.39-2.2,2.51v14.49c0,2.13,0.34,2.43,2.2,2.51v0.59
		c-1.05-0.06-2.79-0.09-4.42-0.09c-1.87,0-3.62,0.03-4.61,0.09v-0.59c1.86-0.08,2.18-0.38,2.18-2.51v-14.49
		c0-2.12-0.34-2.42-2.18-2.51v-0.58c0.99,0.06,2.74,0.08,4.61,0.08c1.63,0,3.37-0.03,4.42-0.08V471.2z"/>
	<path class="st0" d="M612.85,472.1c0.21,0.17,0.42,0.26,0.57,0.26c0.41,0,0.64-0.54,0.76-1.74h0.67c-0.09,1.5-0.11,3.51-0.11,7.08
		h-0.69c-0.31-2.68-0.68-4.09-2.2-5.29c-0.97-0.94-2.31-1.44-3.7-1.44c-4.19,0-5.82,4.89-5.82,10.06c0,5.24,1.75,9.99,5.94,9.99
		c1.28,0,2.69-0.47,3.64-1.41c1.51-1.17,1.87-2.8,2.14-5.65h0.69c0,3.71,0.03,5.81,0.11,7.36h-0.67c-0.12-1.2-0.3-1.73-0.71-1.73
		c-0.17,0-0.37,0.08-0.61,0.24c-1.42,1.01-2.88,1.9-5.39,1.9c-6.19,0-10.31-3.89-10.31-10.58c0-6.53,4.26-10.93,10.34-10.93
		C610.05,470.2,611.57,471.11,612.85,472.1z"/>
	<path class="st0" d="M641.68,488.85c0.54,1.4,1.29,1.84,1.84,1.87v0.59c-1.16-0.06-2.84-0.09-4.44-0.09
		c-1.81,0-3.48,0.03-4.45,0.09v-0.59c1.4-0.06,2.05-0.27,2.05-1.07c0-0.34-0.11-0.8-0.34-1.39l-1.75-4.79h-6.35l-0.79,2.03
		c-0.56,1.43-0.8,2.47-0.8,3.24c0,1.54,1,1.94,2.6,1.98v0.59c-1.33-0.06-2.43-0.09-3.64-0.09c-0.86,0-1.66,0.03-2.24,0.09v-0.59
		c0.86-0.16,1.71-0.91,2.54-3.07l6.65-17.09c0.31,0.03,0.66,0.04,1.01,0.04c0.34,0,0.7-0.02,1.01-0.04L641.68,488.85z
		 M631.48,475.02l-3.02,7.86h5.92L631.48,475.02z"/>
</g>
</svg>
