<svg width="56" height="38" viewBox="0 0 56 38" fill="none" xmlns="http://www.w3.org/2000/svg">
<path d="M0.979492 37.368L3.42738 23.528C4.30611 18.7993 5.68697 14.6473 7.56997 11.072C9.45296 7.38134 12.9051 3.69067 17.9264 0L24.1403 6.055C21.002 8.59233 18.7424 10.9567 17.3615 13.148C15.9807 15.224 14.9764 17.4153 14.3487 19.722H23.3871L20.186 37.368H0.979492ZM32.2372 37.368L34.6851 23.528C35.5638 18.7993 36.9447 14.6473 38.8277 11.072C40.7106 7.38134 44.1628 3.69067 49.1841 0L55.398 6.055C52.2597 8.59233 50.0001 10.9567 48.6192 13.148C47.2384 15.224 46.2341 17.4153 45.6064 19.722H54.6448L51.4437 37.368H32.2372Z" fill="#FFA600"/>
</svg>
