<svg width="40" height="69" viewBox="0 0 40 69" fill="none" xmlns="http://www.w3.org/2000/svg">
<path fill-rule="evenodd" clip-rule="evenodd" d="M20 46.5C20.1989 46.5 20.3896 46.579 20.5303 46.7197C20.671 46.8603 20.75 47.0511 20.75 47.25V64.9395L25.469 60.219C25.6098 60.0782 25.8008 59.9991 26 59.9991C26.1991 59.9991 26.3901 60.0782 26.531 60.219C26.6718 60.3598 26.7509 60.5508 26.7509 60.75C26.7509 60.9492 26.6718 61.1402 26.531 61.281L20.531 67.281C20.4613 67.3508 20.3785 67.4063 20.2874 67.4441C20.1963 67.4819 20.0986 67.5013 20 67.5013C19.9013 67.5013 19.8036 67.4819 19.7125 67.4441C19.6214 67.4063 19.5386 67.3508 19.469 67.281L13.469 61.281C13.3281 61.1402 13.249 60.9492 13.249 60.75C13.249 60.5508 13.3281 60.3598 13.469 60.219C13.6098 60.0782 13.8008 59.9991 14 59.9991C14.1991 59.9991 14.3901 60.0782 14.531 60.219L19.25 64.9395V47.25C19.25 47.0511 19.329 46.8603 19.4696 46.7197C19.6103 46.579 19.8011 46.5 20 46.5Z" fill="#F7FAFC"/>
<path d="M20 7.5C20.3315 7.5 20.6495 7.6317 20.8839 7.86612C21.1183 8.10054 21.25 8.41848 21.25 8.75V13.75C21.25 14.0815 21.1183 14.3995 20.8839 14.6339C20.6495 14.8683 20.3315 15 20 15C19.6685 15 19.3505 14.8683 19.1161 14.6339C18.8817 14.3995 18.75 14.0815 18.75 13.75V8.75C18.75 8.41848 18.8817 8.10054 19.1161 7.86612C19.3505 7.6317 19.6685 7.5 20 7.5ZM30 27.5C30 30.1522 28.9464 32.6957 27.0711 34.5711C25.1957 36.4464 22.6522 37.5 20 37.5C17.3478 37.5 14.8043 36.4464 12.9289 34.5711C11.0536 32.6957 10 30.1522 10 27.5V12.5C10 9.84783 11.0536 7.3043 12.9289 5.42893C14.8043 3.55357 17.3478 2.5 20 2.5C22.6522 2.5 25.1957 3.55357 27.0711 5.42893C28.9464 7.3043 30 9.84783 30 12.5V27.5ZM20 0C16.6848 0 13.5054 1.31696 11.1612 3.66117C8.81696 6.00537 7.5 9.18479 7.5 12.5V27.5C7.5 30.8152 8.81696 33.9946 11.1612 36.3388C13.5054 38.683 16.6848 40 20 40C23.3152 40 26.4946 38.683 28.8388 36.3388C31.183 33.9946 32.5 30.8152 32.5 27.5V12.5C32.5 9.18479 31.183 6.00537 28.8388 3.66117C26.4946 1.31696 23.3152 0 20 0V0Z" fill="#F7FAFC"/>
</svg>
